<svg width="111" height="26" viewBox="0 0 111 26" fill="none" xmlns="http://www.w3.org/2000/svg">
<circle cx="13" cy="13" r="13" fill="#C4C4C4" fill-opacity="0.5"/>
<path fill-rule="evenodd" clip-rule="evenodd" d="M17 7.75008H15.4C14.2983 7.75008 14.3334 8.14316 14.3334 8.8619V9.99991H17L16.4666 13H14.3334V21H10.6V13H9V9.99991H10.6V8.58692C10.6 6.33782 11.7974 5 14.6268 5H17V7.75008Z" fill="white"/>
<path d="M45.5938 15.9766H40.8203V21H39.3203V9.625H46.3672V10.8594H40.8203V14.75H45.5938V15.9766ZM52.8906 21C52.8073 20.8333 52.7396 20.5365 52.6875 20.1094C52.0156 20.8073 51.2135 21.1562 50.2812 21.1562C49.4479 21.1562 48.763 20.9219 48.2266 20.4531C47.6953 19.9792 47.4297 19.3802 47.4297 18.6562C47.4297 17.776 47.763 17.0938 48.4297 16.6094C49.1016 16.1198 50.0443 15.875 51.2578 15.875H52.6641V15.2109C52.6641 14.7057 52.513 14.3047 52.2109 14.0078C51.9089 13.7057 51.4635 13.5547 50.875 13.5547C50.3594 13.5547 49.9271 13.6849 49.5781 13.9453C49.2292 14.2057 49.0547 14.5208 49.0547 14.8906H47.6016C47.6016 14.4688 47.75 14.0625 48.0469 13.6719C48.349 13.276 48.7552 12.9635 49.2656 12.7344C49.7812 12.5052 50.3464 12.3906 50.9609 12.3906C51.9349 12.3906 52.6979 12.6354 53.25 13.125C53.8021 13.6094 54.0885 14.2786 54.1094 15.1328V19.0234C54.1094 19.7995 54.2083 20.4167 54.4062 20.875V21H52.8906ZM50.4922 19.8984C50.9453 19.8984 51.375 19.7812 51.7812 19.5469C52.1875 19.3125 52.4818 19.0078 52.6641 18.6328V16.8984H51.5312C49.7604 16.8984 48.875 17.4167 48.875 18.4531C48.875 18.9062 49.026 19.2604 49.3281 19.5156C49.6302 19.7708 50.0182 19.8984 50.4922 19.8984ZM59.7656 19.9766C60.2812 19.9766 60.7318 19.8203 61.1172 19.5078C61.5026 19.1953 61.7161 18.8047 61.7578 18.3359H63.125C63.099 18.8203 62.9323 19.2812 62.625 19.7188C62.3177 20.1562 61.9062 20.5052 61.3906 20.7656C60.8802 21.026 60.3385 21.1562 59.7656 21.1562C58.6146 21.1562 57.6979 20.7734 57.0156 20.0078C56.3385 19.237 56 18.1849 56 16.8516V16.6094C56 15.7865 56.151 15.0547 56.4531 14.4141C56.7552 13.7734 57.1875 13.276 57.75 12.9219C58.3177 12.5677 58.987 12.3906 59.7578 12.3906C60.7057 12.3906 61.4922 12.6745 62.1172 13.2422C62.7474 13.8099 63.0833 14.5469 63.125 15.4531H61.7578C61.7161 14.9062 61.5078 14.4583 61.1328 14.1094C60.763 13.7552 60.3047 13.5781 59.7578 13.5781C59.0234 13.5781 58.4531 13.8438 58.0469 14.375C57.6458 14.901 57.4453 15.6641 57.4453 16.6641V16.9375C57.4453 17.9115 57.6458 18.6615 58.0469 19.1875C58.4479 19.7135 59.0208 19.9766 59.7656 19.9766ZM68.2578 21.1562C67.112 21.1562 66.1797 20.7812 65.4609 20.0312C64.7422 19.276 64.3828 18.2682 64.3828 17.0078V16.7422C64.3828 15.9036 64.5417 15.1562 64.8594 14.5C65.1823 13.8385 65.6302 13.3229 66.2031 12.9531C66.7812 12.5781 67.4062 12.3906 68.0781 12.3906C69.1771 12.3906 70.0312 12.7526 70.6406 13.4766C71.25 14.2005 71.5547 15.237 71.5547 16.5859V17.1875H65.8281C65.849 18.0208 66.0911 18.6953 66.5547 19.2109C67.0234 19.7214 67.6172 19.9766 68.3359 19.9766C68.8464 19.9766 69.2786 19.8724 69.6328 19.6641C69.987 19.4557 70.2969 19.1797 70.5625 18.8359L71.4453 19.5234C70.737 20.612 69.6745 21.1562 68.2578 21.1562ZM68.0781 13.5781C67.4948 13.5781 67.0052 13.7917 66.6094 14.2188C66.2135 14.6406 65.9688 15.2344 65.875 16H70.1094V15.8906C70.0677 15.1562 69.8698 14.5885 69.5156 14.1875C69.1615 13.7812 68.6823 13.5781 68.0781 13.5781ZM80.3906 16.8672C80.3906 18.1589 80.0938 19.1979 79.5 19.9844C78.9062 20.7656 78.1094 21.1562 77.1094 21.1562C76.0417 21.1562 75.2161 20.7786 74.6328 20.0234L74.5625 21H73.2344V9H74.6797V13.4766C75.263 12.7526 76.0677 12.3906 77.0938 12.3906C78.1198 12.3906 78.9245 12.7786 79.5078 13.5547C80.0964 14.3307 80.3906 15.3932 80.3906 16.7422V16.8672ZM78.9453 16.7031C78.9453 15.7188 78.7552 14.9583 78.375 14.4219C77.9948 13.8854 77.4479 13.6172 76.7344 13.6172C75.7812 13.6172 75.0964 14.0599 74.6797 14.9453V18.6016C75.1224 19.487 75.8125 19.9297 76.75 19.9297C77.4427 19.9297 77.9818 19.6615 78.3672 19.125C78.7526 18.5885 78.9453 17.7812 78.9453 16.7031ZM81.8359 16.6953C81.8359 15.8672 81.9974 15.1224 82.3203 14.4609C82.6484 13.7995 83.1016 13.2891 83.6797 12.9297C84.263 12.5703 84.9271 12.3906 85.6719 12.3906C86.8229 12.3906 87.7526 12.7891 88.4609 13.5859C89.1745 14.3828 89.5312 15.4427 89.5312 16.7656V16.8672C89.5312 17.6901 89.3724 18.4297 89.0547 19.0859C88.7422 19.737 88.2917 20.2448 87.7031 20.6094C87.1198 20.974 86.4479 21.1562 85.6875 21.1562C84.5417 21.1562 83.612 20.7578 82.8984 19.9609C82.1901 19.1641 81.8359 18.1094 81.8359 16.7969V16.6953ZM83.2891 16.8672C83.2891 17.8047 83.5052 18.5573 83.9375 19.125C84.375 19.6927 84.9583 19.9766 85.6875 19.9766C86.4219 19.9766 87.0052 19.6901 87.4375 19.1172C87.8698 18.5391 88.0859 17.7318 88.0859 16.6953C88.0859 15.7682 87.8646 15.0182 87.4219 14.4453C86.9844 13.8672 86.401 13.5781 85.6719 13.5781C84.9583 13.5781 84.3828 13.862 83.9453 14.4297C83.5078 14.9974 83.2891 15.8099 83.2891 16.8672ZM90.9609 16.6953C90.9609 15.8672 91.1224 15.1224 91.4453 14.4609C91.7734 13.7995 92.2266 13.2891 92.8047 12.9297C93.388 12.5703 94.0521 12.3906 94.7969 12.3906C95.9479 12.3906 96.8776 12.7891 97.5859 13.5859C98.2995 14.3828 98.6562 15.4427 98.6562 16.7656V16.8672C98.6562 17.6901 98.4974 18.4297 98.1797 19.0859C97.8672 19.737 97.4167 20.2448 96.8281 20.6094C96.2448 20.974 95.5729 21.1562 94.8125 21.1562C93.6667 21.1562 92.737 20.7578 92.0234 19.9609C91.3151 19.1641 90.9609 18.1094 90.9609 16.7969V16.6953ZM92.4141 16.8672C92.4141 17.8047 92.6302 18.5573 93.0625 19.125C93.5 19.6927 94.0833 19.9766 94.8125 19.9766C95.5469 19.9766 96.1302 19.6901 96.5625 19.1172C96.9948 18.5391 97.2109 17.7318 97.2109 16.6953C97.2109 15.7682 96.9896 15.0182 96.5469 14.4453C96.1094 13.8672 95.526 13.5781 94.7969 13.5781C94.0833 13.5781 93.5078 13.862 93.0703 14.4297C92.6328 14.9974 92.4141 15.8099 92.4141 16.8672ZM102.828 17.0859L101.922 18.0312V21H100.477V9H101.922V16.2578L102.695 15.3281L105.328 12.5469H107.086L103.797 16.0781L107.469 21H105.773L102.828 17.0859Z" fill="white"/>
</svg>
