<svg width="127" height="73" viewBox="0 0 127 73" fill="none" xmlns="http://www.w3.org/2000/svg">
<path d="M45.3982 50.0545C45.218 49.7136 45.0378 49.4296 44.9177 49.0887C44.0768 47.1572 44.0768 45.6802 44.3771 43.8055C44.6174 42.4421 44.5573 41.7604 44.1368 41.2491C43.6563 40.6811 42.9355 40.6242 41.9144 40.5106H41.7342C41.4338 40.4538 41.1335 40.4538 40.8932 40.4538C38.5506 40.3402 37.2292 40.397 36.6285 41.2491C36.0278 42.0445 36.4483 43.2374 37.2892 44.9417C37.7097 45.7938 37.8899 46.646 38.01 47.2709C36.9889 47.3277 35.7876 47.7821 34.346 48.3502C31.4027 49.4864 27.3782 51.077 22.4528 49.6568C16.6263 48.0094 11.7609 43.6351 9.11797 41.2491C7.85657 40.113 7.31597 39.6017 6.8955 39.4881C6.29484 39.3176 5.51397 39.7153 5.0935 39.9425L4.85324 40.0562C4.55291 40.2834 4.13244 40.6242 3.95224 41.0219C3.53177 42.3285 3.47171 44.7713 4.49284 47.4981C4.13244 47.3277 3.89217 47.2709 3.65191 47.214C3.05124 47.1572 2.39051 47.6117 1.84991 48.123L1.66971 48.2934C1.36937 48.5775 1.00897 49.0319 1.00897 49.4864C0.888839 51.5883 1.97004 54.8832 4.55291 57.9509H4.49284C3.89217 58.0645 3.35157 58.7462 2.99117 59.3711V59.5983C2.81097 59.996 2.63077 60.5073 2.69084 60.9617C3.29151 63.2909 5.75424 66.6426 9.89884 68.9718C12.4216 70.392 16.2659 71.7554 21.5518 71.7554C23.8944 71.7554 26.5373 71.4713 29.4205 70.7896C36.2681 69.199 42.6352 64.5975 45.218 59.2007C46.8398 56.0194 46.8999 52.8381 45.3982 50.0545ZM5.03344 41.3059C5.03344 41.3059 5.0935 41.2491 5.0935 41.1923C5.21364 41.4196 5.39384 41.7036 5.57404 41.9877C7.13577 44.6577 10.5596 50.6794 18.6085 53.6902C13.623 52.4972 9.17804 50.0545 6.5351 48.5775C6.3549 48.4638 6.17471 48.3502 5.9945 48.2934C4.73311 45.5098 4.5529 42.783 5.03344 41.3059ZM2.15024 49.6C2.15024 49.6 2.15024 49.4864 2.27037 49.3728C2.45057 49.5432 2.75091 49.8841 3.05124 50.1681C5.57404 52.8381 11.5206 59.1439 22.3927 59.7688C22.7531 59.7688 23.0534 59.7688 23.4138 59.7688C24.495 59.7688 25.6363 59.6551 26.6574 59.4279C26.5373 59.4847 26.3571 59.4847 26.237 59.5415C19.4494 61.0754 11.9411 59.3711 7.91664 58.4622C7.25591 58.2917 6.7153 58.1781 6.29484 58.1213C3.23144 55.1104 2.03011 51.5883 2.15024 49.6ZM44.257 58.8598C41.7942 63.9158 35.7876 68.3469 29.2403 69.8239C12.5418 73.6301 4.73311 64.4839 3.77204 60.7345C3.77204 60.6777 3.77204 60.6209 3.8321 60.4505C4.13244 60.5641 4.49284 60.7913 4.85324 61.0185C8.27704 63.0068 16.2659 67.6083 27.3782 65.052C34.7064 63.4045 38.4305 58.0645 40.5929 54.1447C40.713 53.9175 40.653 53.5766 40.3526 53.463C40.1124 53.3494 39.752 53.4062 39.6318 53.6902C37.5896 57.3828 33.9856 62.4956 27.0779 64.0862C16.386 66.529 8.6975 62.0411 5.39384 60.1664C4.91331 59.8824 4.55291 59.6551 4.25257 59.5415C4.49284 59.2007 4.73311 58.9734 4.85324 58.9734C5.15357 58.9166 6.41497 59.2007 7.61631 59.4847C10.4995 60.1664 15.1847 61.189 20.1702 61.189C22.2125 61.189 24.3749 61.0185 26.4172 60.5073C31.703 59.3143 34.8265 56.3034 37.3493 53.2358C37.5295 53.0085 37.4694 52.6677 37.2292 52.4972C36.9889 52.3268 36.6285 52.3836 36.4483 52.6109C36.208 52.8949 35.9077 53.2358 35.6674 53.5198C31.4027 57.2692 27.0178 58.9734 22.3326 58.6894C11.9411 58.1213 6.17471 52.0428 3.71197 49.4296C3.35157 49.0319 3.11131 48.8047 2.87104 48.5775C3.17137 48.3502 3.41164 48.2366 3.53177 48.2366C3.8321 48.2934 4.85324 48.8615 5.87437 49.4296C9.35824 51.3611 15.8454 54.94 22.693 55.3377C23.0534 55.3377 23.3538 55.3377 23.7142 55.3377C26.1168 55.3377 28.1591 54.8832 29.9611 54.1447H30.0212C30.0812 54.1447 30.0812 54.0879 30.1413 54.0879C32.4238 53.179 34.2258 51.9292 35.7876 50.9066C36.3282 50.5658 36.8087 50.2249 37.2292 49.9409C37.4694 49.7704 37.5295 49.4864 37.4094 49.2592C37.2292 49.0319 36.9288 48.9751 36.6886 49.0887C36.208 49.3728 35.7275 49.7136 35.1869 50.0545C33.6252 51.077 31.8232 52.3268 29.5406 53.179C26.5974 54.0311 23.7142 54.0879 20.9511 53.2926C11.821 50.7362 8.09684 44.2032 6.47504 41.4196C6.23477 41.0219 6.11464 40.7379 5.93444 40.5106C6.23477 40.397 6.41497 40.3402 6.5351 40.3402C6.77537 40.4538 7.55624 41.1355 8.3371 41.874C10.98 44.26 15.9656 48.7479 22.0323 50.4521C23.534 50.8498 24.9756 51.0202 26.297 51.0202C29.6608 51.0202 32.4238 49.9409 34.6463 49.0887C36.208 48.4638 37.5295 47.9526 38.4305 48.123H38.4906H38.5506C38.5506 48.123 38.5506 48.123 38.6107 48.123C38.6708 48.123 38.6708 48.123 38.7308 48.0662C38.7308 48.0662 38.7909 48.0662 38.7909 48.0094C38.851 48.0094 38.851 47.9526 38.911 47.9526L38.9711 47.8958C38.9711 47.8958 39.0312 47.8389 39.0312 47.7821C39.0312 47.7253 39.0312 47.7253 39.0912 47.6685C39.0912 47.6685 39.0912 47.6685 39.0912 47.6117V47.5549V47.4981C39.0312 46.8164 38.851 45.453 38.2503 44.2032C37.95 43.5783 37.1691 41.9877 37.5295 41.5332C37.8298 41.0787 39.4516 41.1355 40.8932 41.1923C41.1335 41.1923 41.3738 41.1923 41.614 41.2491H41.7942C42.5751 41.3059 43.1157 41.4196 43.2959 41.59C43.4761 41.8172 43.4761 42.3853 43.356 43.3511C42.9956 45.3394 42.9956 47.0436 43.9566 49.2023C44.0768 49.5432 44.257 49.8841 44.4372 50.2249C45.7586 53.0085 45.6986 55.849 44.257 58.8598Z" fill="#333B41" stroke="#333B41" stroke-width="0.7"/>
<path d="M42.6964 57.8938C42.4561 57.7802 42.0957 57.8938 41.9756 58.1211C39.6931 62.7794 34.1069 66.8696 28.0401 68.233C27.7398 68.2898 27.5596 68.5738 27.6197 68.8579C27.6797 69.0851 27.92 69.2555 28.1603 69.2555C28.2203 69.2555 28.2203 69.2555 28.2804 69.2555C34.7075 67.8353 40.5941 63.5179 42.9967 58.5755C43.1169 58.3483 42.9967 58.0642 42.6964 57.8938Z" fill="#333B41" stroke="#333B41" stroke-width="0.7"/>
<path d="M68.6255 1.00768C65.4284 0.905391 62.2819 1.8276 59.6419 3.64074C57.0019 5.45388 55.0055 8.06379 53.9418 11.0923C53.8919 11.2345 53.8049 11.3607 53.6898 11.4576C53.5748 11.5545 53.4359 11.6186 53.2877 11.6433C51.6668 11.9186 50.1971 12.7659 49.1431 14.0324C48.0891 15.299 47.5201 16.9018 47.5385 18.552C47.5569 20.2023 48.1616 21.7917 49.2436 23.0342C50.3256 24.2767 51.8139 25.0909 53.4405 25.3297C53.6026 25.3535 53.7543 25.4244 53.8767 25.5337C53.9991 25.643 54.087 25.7858 54.1294 25.9447C54.9252 28.9208 56.6403 31.5671 59.0282 33.5033C61.416 35.4395 64.3538 36.5659 67.4193 36.7209C66.7502 39.1745 66.3446 41.693 66.2096 44.2333L61.1491 43.4302C60.0822 43.2608 58.992 43.5238 58.1183 44.1613C57.2446 44.7988 56.6589 45.7585 56.4901 46.8296C56.3213 47.9006 56.5832 48.995 57.2181 49.8722C57.8531 50.7494 58.8091 51.3373 59.8759 51.5068L66.7495 52.5969C66.9445 53.6657 67.1882 54.7249 67.4796 55.7714C65.9155 57.4792 65.0475 59.7146 65.0477 62.0346V63.4815C65.0475 63.7046 64.9592 63.9186 64.802 64.0763C64.6449 64.2341 64.4318 64.3227 64.2096 64.3229H63.7079C63.1132 64.3225 62.5241 64.44 61.9745 64.6682C61.4249 64.8965 60.9255 65.2312 60.5047 65.6533C60.084 66.0754 59.7503 66.5766 59.5225 67.1282C59.2948 67.6798 59.1775 68.2711 59.1775 68.8682V70.0537C59.1775 70.3888 59.2434 70.7206 59.3712 71.0302C59.4991 71.3397 59.6864 71.6208 59.9226 71.8576C60.1588 72.0944 60.4391 72.2822 60.7476 72.4102C61.0561 72.5382 61.3866 72.6038 61.7204 72.6035H93.923C98.252 72.604 102.532 71.6861 106.483 69.9097C110.434 68.1333 113.966 65.5386 116.848 62.2957C121.41 57.704 124.459 51.8179 125.582 45.4318C126.273 39.885 124.773 34.2873 121.404 29.8364C118.774 26.4476 115.2 23.9195 111.137 22.5725C108.33 21.7241 105.327 21.7963 102.564 22.7788C99.8014 23.7613 97.4227 25.6028 95.7738 28.0356C95.4604 28.4967 95.2407 29.0152 95.1271 29.5616C95.0135 30.108 95.0083 30.6713 95.1118 31.2197C95.2153 31.7681 95.4255 32.2906 95.7303 32.7574C96.0351 33.2241 96.4286 33.6261 96.8883 33.94C97.3479 34.254 97.8647 34.4738 98.4091 34.5871C98.9534 34.7004 99.5147 34.7049 100.061 34.6003C100.607 34.4957 101.127 34.2839 101.592 33.9773C102.056 33.6707 102.456 33.2752 102.768 32.8134C103.395 31.8884 104.296 31.1847 105.343 30.8015C106.39 30.4183 107.53 30.3751 108.603 30.678C111.011 31.5014 113.128 33.0083 114.699 35.0159C116.667 37.637 117.567 40.9127 117.214 44.1761C116.343 48.8459 114.066 53.1347 110.689 56.463C107.458 60.1776 103.093 62.715 98.2756 63.6793C98.236 63.687 98.195 63.6847 98.1565 63.6725C98.118 63.6603 98.0831 63.6386 98.055 63.6095C98.027 63.5803 98.0066 63.5446 97.9958 63.5056C97.985 63.4665 97.9841 63.4253 97.9931 63.3858C99.4786 57.132 99.056 50.5742 96.7803 44.5647C95.6147 40.7952 93.6694 37.3154 91.0717 34.3527C88.4741 31.39 85.2826 29.0115 81.706 27.3725C81.8838 26.9048 82.0375 26.4281 82.1664 25.9445C82.2088 25.7856 82.2967 25.6428 82.4192 25.5335C82.5416 25.4242 82.6933 25.3533 82.8554 25.3295C84.482 25.0903 85.9701 24.276 87.0517 23.0332C88.1334 21.7904 88.7377 20.2007 88.7557 18.5504C88.7737 16.9001 88.2044 15.2977 87.1501 14.0314C86.0958 12.7651 84.6259 11.9181 83.005 11.6431C82.8568 11.6184 82.7179 11.5543 82.6029 11.4574C82.4878 11.3605 82.4008 11.2343 82.3509 11.0921C81.3417 8.21857 79.4913 5.71834 77.0422 3.9188C74.5931 2.11927 71.6589 1.10461 68.6255 1.00768ZM67.6825 2.11355C70.6461 2.01807 73.5631 2.87269 76.0103 4.55356C78.4575 6.23443 80.3078 8.65423 81.293 11.4619C81.4086 11.7905 81.6097 12.082 81.8754 12.3062C82.1412 12.5304 82.4619 12.6791 82.8042 12.7368C84.165 12.9681 85.3988 13.6794 86.2838 14.7425C87.1688 15.8057 87.6468 17.151 87.6319 18.5364C87.617 19.9218 87.1102 21.2565 86.2026 22.3002C85.2949 23.344 84.0461 24.0284 82.6807 24.2302C82.305 24.2852 81.9536 24.4494 81.6698 24.7026C81.386 24.9558 81.1823 25.2868 81.0838 25.6549C80.664 27.2271 79.9637 28.7098 79.0169 30.0311C79.1451 27.4422 78.252 24.9069 76.531 22.9745C76.5115 22.948 76.4975 22.9177 76.4899 22.8856C76.4823 22.8535 76.4813 22.8203 76.4869 22.7878C76.4925 22.7554 76.5047 22.7243 76.5226 22.6967C76.5405 22.669 76.5638 22.6454 76.5912 22.6271C77.9577 21.4524 78.8346 19.8048 79.0476 18.0114C79.2607 16.2179 78.7944 14.4095 77.7413 12.9451C76.6882 11.4806 75.1253 10.4673 73.3626 10.1058C71.5999 9.74425 69.7662 10.0611 68.2254 10.9935C68.0021 11.1284 67.7463 11.1997 67.4856 11.1997C67.225 11.1997 66.9692 11.1284 66.7459 10.9935H66.7296C65.1888 10.0648 63.3568 9.75074 61.5964 10.1136C59.836 10.4765 58.2755 11.4899 57.2238 12.9529C56.1722 14.4159 55.7061 16.222 55.9178 18.0136C56.1295 19.8052 57.0037 21.4517 58.3671 22.6271C58.3901 22.6497 58.4084 22.6767 58.4208 22.7065C58.4333 22.7364 58.4397 22.7685 58.4397 22.8008C58.4397 22.8331 58.4333 22.865 58.4208 22.8949C58.4084 22.9247 58.3901 22.9519 58.3671 22.9745C57.1303 24.3661 56.3123 26.0814 56.0082 27.9212C55.6638 27.1923 55.3855 26.4338 55.1764 25.6549C55.0781 25.2873 54.8749 24.9566 54.5917 24.7034C54.3085 24.4503 53.9578 24.2858 53.5827 24.2302C52.2173 24.0284 50.9685 23.344 50.0609 22.3002C49.1532 21.2565 48.6464 19.9218 48.6315 18.5364C48.6166 17.151 49.0946 15.8057 49.9796 14.7425C50.8646 13.6794 52.0985 12.9681 53.4592 12.7368C53.8009 12.6785 54.121 12.5298 54.3861 12.3056C54.6513 12.0814 54.8519 11.7901 54.9672 11.4619C55.9016 8.79894 57.6156 6.48146 59.8845 4.8133C62.1535 3.14515 64.8716 2.2041 67.6825 2.11355ZM62.8154 11.0698C62.9709 11.0638 63.1266 11.0638 63.2821 11.0698C64.2973 11.1137 65.2853 11.413 66.1553 11.9401C66.5507 12.1789 67.0035 12.305 67.4649 12.305C67.9264 12.305 68.3791 12.1789 68.7745 11.9401C70.078 11.1551 71.6276 10.89 73.1165 11.1975C74.6054 11.5049 75.925 12.3623 76.8141 13.6C77.7033 14.8377 78.097 16.3655 77.9176 17.8809C77.7381 19.3962 76.9984 20.7887 75.8449 21.7826C75.7094 21.9003 75.5986 22.0438 75.519 22.205C75.4394 22.3661 75.3927 22.5418 75.3815 22.7214C75.3703 22.9009 75.3949 23.0808 75.4538 23.2507C75.5127 23.4206 75.6048 23.577 75.7246 23.7107C76.6682 24.7702 77.3403 26.0445 77.6827 27.4235C78.0252 28.8025 78.0276 30.2446 77.6899 31.6247C76.2914 33.0463 74.5952 34.1377 72.7245 34.8195C70.8538 35.5013 68.8553 35.7566 66.8741 35.5668C64.8929 35.377 62.9786 34.7468 61.2701 33.7221C59.5616 32.6974 58.1016 31.3037 56.9962 29.6423C56.9703 27.4565 57.761 25.3403 59.2122 23.7107C59.3315 23.5764 59.4229 23.4195 59.481 23.2493C59.5391 23.079 59.5628 22.8987 59.5507 22.7191C59.5386 22.5395 59.4909 22.3643 59.4105 22.2035C59.33 22.0427 59.2184 21.8996 59.0822 21.7826C58.1527 20.9856 57.4848 19.9251 57.1661 18.7404C56.8473 17.5557 56.8925 16.3019 57.2958 15.1434C57.6991 13.985 58.4416 12.9758 59.4261 12.2484C60.4105 11.5209 61.591 11.109 62.8126 11.0668L62.8154 11.0698ZM107.06 23.0955C108.33 23.0845 109.593 23.265 110.81 23.6311C114.656 24.9112 118.037 27.3068 120.528 30.5156C123.714 34.7258 125.137 40.0187 124.493 45.2665C123.402 51.4294 120.453 57.1077 116.045 61.5344C113.266 64.6672 109.859 67.1742 106.047 68.8909C102.235 70.6075 98.1039 71.4949 93.9257 71.4947H61.7233C61.5346 71.4951 61.3477 71.4582 61.1732 71.386C60.9987 71.3138 60.8401 71.2076 60.7065 71.0738C60.5729 70.94 60.4669 70.7812 60.3946 70.6062C60.3223 70.4312 60.2851 70.2434 60.2851 70.054V68.8684C60.2851 68.4169 60.3737 67.9699 60.5459 67.5528C60.7181 67.1357 60.9705 66.757 61.2886 66.4379C61.6068 66.1188 61.9844 65.8657 62.4 65.6932C62.8156 65.5207 63.261 65.4321 63.7107 65.4325H64.2123C64.4677 65.4327 64.7207 65.3826 64.9567 65.2847C65.1928 65.1868 65.4073 65.0433 65.588 64.8621C65.7688 64.681 65.9122 64.4658 66.0101 64.229C66.108 63.9922 66.1584 63.7383 66.1586 63.4819V62.035C66.208 59.9089 67.0839 57.8866 68.5992 56.4004C70.1144 54.9143 72.1487 54.0823 74.2671 54.0823C76.3854 54.0823 78.4197 54.9143 79.935 56.4004C81.4503 57.8866 82.3262 59.9089 82.3756 62.035V64.5114C82.3799 64.6556 82.4399 64.7925 82.5431 64.893C82.6462 64.9935 82.7843 65.0496 82.928 65.0496C83.0718 65.0496 83.2098 64.9935 83.313 64.893C83.4161 64.7925 83.4762 64.6556 83.4805 64.5114V62.035C83.4809 60.4145 83.0574 58.8221 82.2523 57.4176C81.4472 56.013 80.2888 54.8455 78.8929 54.0316C79.743 53.8303 80.5441 53.4595 81.2485 52.9412C81.953 52.4229 82.5465 51.7677 82.9937 51.0145C83.4409 50.2614 83.7327 49.4256 83.8518 48.557C83.9709 47.6884 83.9148 46.8046 83.6869 45.9581C83.0965 43.7654 82.2793 41.6405 81.2486 39.6184C81.1816 39.4874 81.0655 39.3885 80.9259 39.3434C80.7862 39.2984 80.6344 39.3108 80.5039 39.378C80.3734 39.4453 80.2749 39.5618 80.2299 39.702C80.185 39.8422 80.1974 39.9947 80.2644 40.1258C81.259 42.0788 82.0475 44.1307 82.617 46.2483C82.8524 47.1227 82.8662 48.0424 82.6573 48.9236C82.4483 49.8047 82.0231 50.6195 81.4204 51.2936C80.8178 51.9677 80.0567 52.4797 79.2066 52.7831C78.3565 53.0866 77.4443 53.1718 76.553 53.0309L60.0533 50.411C59.2784 50.2851 58.5849 49.8558 58.1245 49.2175C57.6642 48.5792 57.4746 47.7839 57.5972 47.0055C57.7198 46.2272 58.1447 45.5293 58.7788 45.0648C59.4129 44.6003 60.2046 44.407 60.9803 44.5272L73.683 46.5449C73.8271 46.5663 73.9739 46.5297 74.0913 46.443C74.2088 46.3563 74.2873 46.2266 74.3099 46.082C74.3325 45.9375 74.2974 45.7898 74.2121 45.6712C74.1268 45.5525 73.9982 45.4725 73.8544 45.4485L67.3111 44.4095C67.4398 41.8119 67.8605 39.2371 68.5652 36.7343C71.244 36.6572 73.8493 35.8371 76.0925 34.3648C78.3356 32.8926 80.129 30.8257 81.274 28.3932C84.7086 29.971 87.7726 32.2594 90.2652 35.1085C92.7579 37.9575 94.623 41.3029 95.7385 44.9257C97.9456 50.7362 98.3572 57.0795 96.9196 63.1283C96.867 63.3491 96.8706 63.5797 96.9301 63.7986C96.9895 64.0176 97.1029 64.2181 97.2597 64.3815C97.4166 64.545 97.6119 64.6663 97.8276 64.7341C98.0434 64.8019 98.2727 64.8142 98.4944 64.7697C103.538 63.7603 108.109 61.1086 111.499 57.2256C115.029 53.7315 117.406 49.2332 118.309 44.3391C118.705 40.7784 117.728 37.2006 115.578 34.3408C113.868 32.1508 111.559 30.5091 108.933 29.617C107.634 29.2446 106.252 29.2929 104.982 29.7547C103.712 30.2164 102.62 31.0684 101.86 32.1893C101.629 32.5301 101.333 32.8217 100.99 33.0478C100.647 33.2739 100.262 33.43 99.859 33.507C99.4557 33.584 99.0412 33.5803 98.6393 33.4965C98.2373 33.4126 97.8557 33.2501 97.5163 33.0182C97.1769 32.7863 96.8863 32.4895 96.6612 32.1449C96.436 31.8002 96.2807 31.4145 96.2041 31.0096C96.1274 30.6046 96.131 30.1885 96.2146 29.7849C96.2981 29.3814 96.46 28.9983 96.6911 28.6576C97.8433 26.9586 99.3884 25.5652 101.194 24.5966C103 23.628 105.013 23.1127 107.06 23.0955ZM67.9143 52.7819L71.213 53.3047C70.1876 53.6671 69.2341 54.2088 68.3968 54.9047C68.2148 54.2024 68.0549 53.4944 67.9174 52.7819H67.9143Z" fill="#333B41" stroke="#333B41" stroke-width="0.7"/>
<path d="M72.0679 14.6307C71.4493 14.6418 70.8601 14.898 70.4289 15.3434C69.9977 15.7889 69.7594 16.3874 69.766 17.0085C69.766 17.6328 70.013 18.2313 70.4527 18.6728C70.8924 19.1142 71.4888 19.3623 72.1107 19.3623C72.7325 19.3623 73.3289 19.1142 73.7686 18.6728C74.2083 18.2313 74.4553 17.6328 74.4553 17.0085C74.4586 16.6937 74.399 16.3814 74.28 16.0901C74.161 15.7989 73.9849 15.5345 73.7623 15.3127C73.5397 15.091 73.275 14.9164 72.984 14.7992C72.6929 14.682 72.3814 14.6248 72.0679 14.6307ZM72.0874 15.7526C72.2532 15.7492 72.4179 15.7793 72.5719 15.8411C72.7259 15.9029 72.866 15.995 72.9838 16.1122C73.1016 16.2293 73.1949 16.369 73.2579 16.523C73.321 16.6769 73.3526 16.842 73.3509 17.0085C73.351 17.172 73.319 17.3339 73.2567 17.485C73.1944 17.6361 73.1031 17.7734 72.988 17.889C72.8728 18.0046 72.7362 18.0963 72.5857 18.1588C72.4352 18.2214 72.274 18.2537 72.1111 18.2537C71.9483 18.2537 71.787 18.2214 71.6365 18.1588C71.4861 18.0963 71.3494 18.0046 71.2343 17.889C71.1191 17.7734 71.0278 17.6361 70.9655 17.485C70.9033 17.3339 70.8713 17.172 70.8713 17.0085C70.868 16.6805 70.994 16.3643 71.2217 16.129C71.4495 15.8938 71.7607 15.7586 72.0874 15.7526Z" fill="#333B41" stroke="#333B41" stroke-width="0.7"/>
<path d="M62.7849 14.6306C62.1663 14.6418 61.5772 14.8979 61.146 15.3434C60.7148 15.7888 60.4765 16.3874 60.4831 17.0084C60.4742 17.323 60.5283 17.6359 60.642 17.9291C60.7558 18.2223 60.9269 18.4897 61.1454 18.7153C61.3638 18.9409 61.6251 19.1202 61.9138 19.2426C62.2025 19.3651 62.5127 19.4283 62.8261 19.4283C63.1395 19.4283 63.4498 19.3651 63.7385 19.2426C64.0272 19.1202 64.2885 18.9409 64.5069 18.7153C64.7253 18.4897 64.8965 18.2223 65.0103 17.9291C65.124 17.6359 65.1781 17.323 65.1692 17.0084C65.1725 16.6939 65.113 16.3819 64.9941 16.0909C64.8753 15.7999 64.6996 15.5356 64.4773 15.3139C64.255 15.0922 63.9907 14.9176 63.7 14.8002C63.4093 14.6828 63.0981 14.6252 62.7849 14.6306ZM62.8043 15.7525C62.9699 15.7496 63.1343 15.7799 63.2879 15.8419C63.4416 15.9038 63.5812 15.996 63.6988 16.1131C63.8163 16.2302 63.9092 16.3698 63.9721 16.5235C64.0349 16.6773 64.0664 16.8422 64.0648 17.0084C64.069 17.1744 64.0401 17.3394 63.9798 17.494C63.9195 17.6485 63.8289 17.7894 63.7135 17.9083C63.5981 18.0272 63.4602 18.1214 63.3079 18.1859C63.1555 18.2504 62.9919 18.2837 62.8265 18.2837C62.6612 18.2837 62.4975 18.2504 62.3452 18.1859C62.1929 18.1214 62.0549 18.0272 61.9395 17.9083C61.8241 17.7894 61.7336 17.6485 61.6733 17.494C61.6129 17.3394 61.5841 17.1744 61.5883 17.0084C61.585 16.6804 61.7109 16.3642 61.9387 16.129C62.1665 15.8937 62.4776 15.7585 62.8043 15.7525Z" fill="#333B41" stroke="#333B41" stroke-width="0.7"/>
<path d="M63.4982 28.8265C63.947 29.4644 64.5418 29.9848 65.2326 30.344C65.9233 30.7032 66.6899 30.8909 67.4679 30.8909C68.2459 30.8909 69.0125 30.7032 69.7032 30.344C70.394 29.9848 70.9888 29.4644 71.4377 28.8265C71.5198 28.7062 71.5514 28.5582 71.5257 28.4146C71.5 28.2711 71.4191 28.1435 71.3004 28.0594C71.1818 27.9753 71.0349 27.9416 70.8915 27.9653C70.7482 27.9891 70.62 28.0684 70.5345 28.1864C70.1878 28.6791 69.7283 29.0813 69.1947 29.3587C68.661 29.6362 68.0689 29.7809 67.4679 29.7809C66.867 29.7809 66.2748 29.6362 65.7412 29.3587C65.2075 29.0813 64.748 28.6791 64.4013 28.1864C64.3158 28.0684 64.1876 27.9891 64.0443 27.9653C63.9009 27.9415 63.754 27.9753 63.6354 28.0594C63.5167 28.1435 63.4358 28.2711 63.4101 28.4146C63.3844 28.5582 63.416 28.7062 63.4982 28.8265Z" fill="#333B41" stroke="#333B41" stroke-width="0.7"/>
</svg>
