<svg width="110" height="26" viewBox="0 0 110 26" fill="none" xmlns="http://www.w3.org/2000/svg">
<circle cx="13" cy="13" r="13" fill="#C4C4C4" fill-opacity="0.5"/>
<path fill-rule="evenodd" clip-rule="evenodd" d="M9.70172 5.04829C8.8501 5.087 8.26863 5.22215 7.75974 5.42002C7.23357 5.62431 6.78768 5.89803 6.34294 6.34276C5.89791 6.78749 5.62447 7.23351 5.42017 7.75967C5.2223 8.26869 5.08701 8.85014 5.04829 9.7016C5.00929 10.5549 5 10.8272 5 13C5 15.1728 5.00929 15.4449 5.04829 16.2984C5.08701 17.1499 5.2223 17.7313 5.42017 18.24C5.62447 18.7662 5.89791 19.2125 6.34294 19.6571C6.78768 20.102 7.23357 20.3754 7.75974 20.58C8.26863 20.7779 8.8501 20.913 9.70172 20.9517C10.5551 20.9907 10.8274 21 13.0001 21C15.1729 21 15.4452 20.9907 16.2986 20.9517C17.15 20.913 17.7315 20.7779 18.2407 20.58C18.7664 20.3754 19.2127 20.102 19.6575 19.6571C20.1022 19.2125 20.3755 18.7662 20.5801 18.24C20.7778 17.7313 20.9133 17.1499 20.952 16.2984C20.991 15.4449 21 15.1728 21 13C21 10.8272 20.991 10.5549 20.952 9.7016C20.9133 8.85014 20.7778 8.26869 20.5801 7.75967C20.3755 7.23351 20.1022 6.78749 19.6575 6.34276C19.2127 5.89803 18.7664 5.62431 18.2407 5.42002C17.7315 5.22215 17.15 5.087 16.2986 5.04829C15.4452 5.00943 15.1729 5 13.0001 5C10.8274 5 10.5551 5.00943 9.70172 5.04829ZM9.76747 19.5116C8.98742 19.4761 8.56382 19.3461 8.28209 19.2364C7.9085 19.091 7.6422 18.9177 7.36218 18.6378C7.08216 18.358 6.90886 18.0915 6.76357 17.7181C6.65399 17.4362 6.52384 17.0126 6.48812 16.2326C6.44969 15.389 6.44141 15.1359 6.44141 12.9999C6.44141 10.8637 6.44969 10.6108 6.48812 9.76709C6.52384 8.9872 6.65399 8.56362 6.76357 8.28175C6.90886 7.90831 7.08216 7.64173 7.36218 7.36186C7.6422 7.08199 7.9085 6.90841 8.28209 6.76355C8.56382 6.65398 8.98742 6.52369 9.76747 6.48797C10.611 6.44954 10.8641 6.4414 13.0001 6.4414C15.1361 6.4414 15.3891 6.44954 16.233 6.48797C17.0128 6.52369 17.4364 6.65398 17.7184 6.76355C18.0918 6.90841 18.3583 7.08199 18.6382 7.36186C18.9182 7.64173 19.0913 7.90831 19.2366 8.28175C19.3462 8.56362 19.4765 8.9872 19.5122 9.76709C19.5507 10.6108 19.5585 10.8637 19.5585 12.9999C19.5585 15.1359 19.5507 15.389 19.5122 16.2326C19.4765 17.0126 19.3462 17.4362 19.2366 17.7181C19.0913 18.0915 18.9182 18.358 18.6382 18.6378C18.3583 18.9177 18.0918 19.091 17.7184 19.2364C17.4364 19.3461 17.0128 19.4761 16.233 19.5116C15.3894 19.5503 15.1364 19.5583 13.0001 19.5583C10.8641 19.5583 10.611 19.5503 9.76747 19.5116ZM16.3105 8.72943C16.3105 9.25945 16.7403 9.68947 17.2706 9.68947C17.8008 9.68947 18.2305 9.25945 18.2305 8.72943C18.2305 8.19913 17.8008 7.76954 17.2706 7.76954C16.7403 7.76954 16.3105 8.19913 16.3105 8.72943ZM8.8916 13.0002C8.8916 15.2691 10.731 17.1082 12.9999 17.1082C15.2689 17.1082 17.108 15.2691 17.108 13.0002C17.108 10.7312 15.2689 8.89203 12.9999 8.89203C10.731 8.89203 8.8916 10.7312 8.8916 13.0002ZM10.334 13.0001C10.334 11.5273 11.5278 10.3334 13.0006 10.3334C14.4734 10.3334 15.6673 11.5273 15.6673 13.0001C15.6673 14.473 14.4734 15.6668 13.0006 15.6668C11.5278 15.6668 10.334 14.473 10.334 13.0001Z" fill="white"/>
<path d="M40.9297 19H39.4297V7.625H40.9297V19ZM44.8203 10.5469L44.8672 11.6094C45.513 10.7969 46.3568 10.3906 47.3984 10.3906C49.1849 10.3906 50.0859 11.3984 50.1016 13.4141V19H48.6562V13.4062C48.651 12.7969 48.5104 12.3464 48.2344 12.0547C47.9635 11.763 47.5391 11.6172 46.9609 11.6172C46.4922 11.6172 46.0807 11.7422 45.7266 11.9922C45.3724 12.2422 45.0964 12.5703 44.8984 12.9766V19H43.4531V10.5469H44.8203ZM57.2031 16.7578C57.2031 16.3672 57.0547 16.0651 56.7578 15.8516C56.4661 15.6328 55.9531 15.4453 55.2188 15.2891C54.4896 15.1328 53.9089 14.9453 53.4766 14.7266C53.0495 14.5078 52.7318 14.2474 52.5234 13.9453C52.3203 13.6432 52.2188 13.2839 52.2188 12.8672C52.2188 12.1745 52.5104 11.5885 53.0938 11.1094C53.6823 10.6302 54.4323 10.3906 55.3438 10.3906C56.3021 10.3906 57.0781 10.638 57.6719 11.1328C58.2708 11.6276 58.5703 12.2604 58.5703 13.0312H57.1172C57.1172 12.6354 56.9479 12.2943 56.6094 12.0078C56.276 11.7214 55.8542 11.5781 55.3438 11.5781C54.8177 11.5781 54.4062 11.6927 54.1094 11.9219C53.8125 12.151 53.6641 12.4505 53.6641 12.8203C53.6641 13.1693 53.8021 13.4323 54.0781 13.6094C54.3542 13.7865 54.8516 13.9557 55.5703 14.1172C56.2943 14.2786 56.8802 14.4714 57.3281 14.6953C57.776 14.9193 58.1068 15.1901 58.3203 15.5078C58.5391 15.8203 58.6484 16.2031 58.6484 16.6562C58.6484 17.4115 58.3464 18.0182 57.7422 18.4766C57.138 18.9297 56.3542 19.1562 55.3906 19.1562C54.7135 19.1562 54.1146 19.0365 53.5938 18.7969C53.0729 18.5573 52.6641 18.224 52.3672 17.7969C52.0755 17.3646 51.9297 16.8984 51.9297 16.3984H53.375C53.401 16.8828 53.5938 17.2682 53.9531 17.5547C54.3177 17.8359 54.7969 17.9766 55.3906 17.9766C55.9375 17.9766 56.375 17.8672 56.7031 17.6484C57.0365 17.4245 57.2031 17.1276 57.2031 16.7578ZM62.4922 8.5V10.5469H64.0703V11.6641H62.4922V16.9062C62.4922 17.2448 62.5625 17.5 62.7031 17.6719C62.8438 17.8385 63.0833 17.9219 63.4219 17.9219C63.5885 17.9219 63.8177 17.8906 64.1094 17.8281V19C63.7292 19.1042 63.3594 19.1562 63 19.1562C62.3542 19.1562 61.8672 18.9609 61.5391 18.5703C61.2109 18.1797 61.0469 17.625 61.0469 16.9062V11.6641H59.5078V10.5469H61.0469V8.5H62.4922ZM70.9844 19C70.901 18.8333 70.8333 18.5365 70.7812 18.1094C70.1094 18.8073 69.3073 19.1562 68.375 19.1562C67.5417 19.1562 66.8568 18.9219 66.3203 18.4531C65.7891 17.9792 65.5234 17.3802 65.5234 16.6562C65.5234 15.776 65.8568 15.0938 66.5234 14.6094C67.1953 14.1198 68.138 13.875 69.3516 13.875H70.7578V13.2109C70.7578 12.7057 70.6068 12.3047 70.3047 12.0078C70.0026 11.7057 69.5573 11.5547 68.9688 11.5547C68.4531 11.5547 68.0208 11.6849 67.6719 11.9453C67.3229 12.2057 67.1484 12.5208 67.1484 12.8906H65.6953C65.6953 12.4688 65.8438 12.0625 66.1406 11.6719C66.4427 11.276 66.849 10.9635 67.3594 10.7344C67.875 10.5052 68.4401 10.3906 69.0547 10.3906C70.0286 10.3906 70.7917 10.6354 71.3438 11.125C71.8958 11.6094 72.1823 12.2786 72.2031 13.1328V17.0234C72.2031 17.7995 72.3021 18.4167 72.5 18.875V19H70.9844ZM68.5859 17.8984C69.0391 17.8984 69.4688 17.7812 69.875 17.5469C70.2812 17.3125 70.5755 17.0078 70.7578 16.6328V14.8984H69.625C67.8542 14.8984 66.9688 15.4167 66.9688 16.4531C66.9688 16.9062 67.1198 17.2604 67.4219 17.5156C67.724 17.7708 68.112 17.8984 68.5859 17.8984ZM74.125 14.7031C74.125 13.3854 74.4297 12.3385 75.0391 11.5625C75.6484 10.7812 76.4557 10.3906 77.4609 10.3906C78.4922 10.3906 79.2969 10.7552 79.875 11.4844L79.9453 10.5469H81.2656V18.7969C81.2656 19.8906 80.9401 20.7526 80.2891 21.3828C79.6432 22.013 78.7734 22.3281 77.6797 22.3281C77.0703 22.3281 76.474 22.1979 75.8906 21.9375C75.3073 21.6771 74.862 21.3203 74.5547 20.8672L75.3047 20C75.9245 20.7656 76.6823 21.1484 77.5781 21.1484C78.2812 21.1484 78.8281 20.9505 79.2188 20.5547C79.6146 20.1589 79.8125 19.6016 79.8125 18.8828V18.1562C79.2344 18.8229 78.4453 19.1562 77.4453 19.1562C76.4557 19.1562 75.6536 18.7578 75.0391 17.9609C74.4297 17.1641 74.125 16.0781 74.125 14.7031ZM75.5781 14.8672C75.5781 15.8203 75.7734 16.5703 76.1641 17.1172C76.5547 17.6589 77.1016 17.9297 77.8047 17.9297C78.7161 17.9297 79.3854 17.5156 79.8125 16.6875V12.8281C79.3698 12.0208 78.7057 11.6172 77.8203 11.6172C77.1172 11.6172 76.5677 11.8906 76.1719 12.4375C75.776 12.9844 75.5781 13.7943 75.5781 14.8672ZM87.5391 11.8438C87.3203 11.8073 87.0833 11.7891 86.8281 11.7891C85.8802 11.7891 85.237 12.1927 84.8984 13V19H83.4531V10.5469H84.8594L84.8828 11.5234C85.3568 10.7682 86.0286 10.3906 86.8984 10.3906C87.1797 10.3906 87.3932 10.4271 87.5391 10.5V11.8438ZM93.7812 19C93.6979 18.8333 93.6302 18.5365 93.5781 18.1094C92.9062 18.8073 92.1042 19.1562 91.1719 19.1562C90.3385 19.1562 89.6536 18.9219 89.1172 18.4531C88.5859 17.9792 88.3203 17.3802 88.3203 16.6562C88.3203 15.776 88.6536 15.0938 89.3203 14.6094C89.9922 14.1198 90.9349 13.875 92.1484 13.875H93.5547V13.2109C93.5547 12.7057 93.4036 12.3047 93.1016 12.0078C92.7995 11.7057 92.3542 11.5547 91.7656 11.5547C91.25 11.5547 90.8177 11.6849 90.4688 11.9453C90.1198 12.2057 89.9453 12.5208 89.9453 12.8906H88.4922C88.4922 12.4688 88.6406 12.0625 88.9375 11.6719C89.2396 11.276 89.6458 10.9635 90.1562 10.7344C90.6719 10.5052 91.237 10.3906 91.8516 10.3906C92.8255 10.3906 93.5885 10.6354 94.1406 11.125C94.6927 11.6094 94.9792 12.2786 95 13.1328V17.0234C95 17.7995 95.099 18.4167 95.2969 18.875V19H93.7812ZM91.3828 17.8984C91.8359 17.8984 92.2656 17.7812 92.6719 17.5469C93.0781 17.3125 93.3724 17.0078 93.5547 16.6328V14.8984H92.4219C90.651 14.8984 89.7656 15.4167 89.7656 16.4531C89.7656 16.9062 89.9167 17.2604 90.2188 17.5156C90.5208 17.7708 90.9089 17.8984 91.3828 17.8984ZM98.625 10.5469L98.6641 11.4844C99.2839 10.7552 100.12 10.3906 101.172 10.3906C102.354 10.3906 103.159 10.8438 103.586 11.75C103.867 11.3438 104.232 11.0156 104.68 10.7656C105.133 10.5156 105.667 10.3906 106.281 10.3906C108.135 10.3906 109.078 11.3724 109.109 13.3359V19H107.664V13.4219C107.664 12.8177 107.526 12.3672 107.25 12.0703C106.974 11.7682 106.51 11.6172 105.859 11.6172C105.323 11.6172 104.878 11.7786 104.523 12.1016C104.169 12.4193 103.964 12.849 103.906 13.3906V19H102.453V13.4609C102.453 12.2318 101.852 11.6172 100.648 11.6172C99.7005 11.6172 99.0521 12.0208 98.7031 12.8281V19H97.2578V10.5469H98.625Z" fill="white"/>
</svg>
