<svg width="101" height="26" viewBox="0 0 101 26" fill="none" xmlns="http://www.w3.org/2000/svg">
<circle cx="13" cy="13" r="13" fill="#C4C4C4" fill-opacity="0.5"/>
<path d="M42.7891 14.3359L45.7578 8.625H47.4609L43.5391 15.7578V20H42.0391V15.7578L38.1172 8.625H39.8359L42.7891 14.3359ZM47.8047 15.6953C47.8047 14.8672 47.9661 14.1224 48.2891 13.4609C48.6172 12.7995 49.0703 12.2891 49.6484 11.9297C50.2318 11.5703 50.8958 11.3906 51.6406 11.3906C52.7917 11.3906 53.7214 11.7891 54.4297 12.5859C55.1432 13.3828 55.5 14.4427 55.5 15.7656V15.8672C55.5 16.6901 55.3411 17.4297 55.0234 18.0859C54.7109 18.737 54.2604 19.2448 53.6719 19.6094C53.0885 19.974 52.4167 20.1562 51.6562 20.1562C50.5104 20.1562 49.5807 19.7578 48.8672 18.9609C48.1589 18.1641 47.8047 17.1094 47.8047 15.7969V15.6953ZM49.2578 15.8672C49.2578 16.8047 49.474 17.5573 49.9062 18.125C50.3438 18.6927 50.9271 18.9766 51.6562 18.9766C52.3906 18.9766 52.974 18.6901 53.4062 18.1172C53.8385 17.5391 54.0547 16.7318 54.0547 15.6953C54.0547 14.7682 53.8333 14.0182 53.3906 13.4453C52.9531 12.8672 52.3698 12.5781 51.6406 12.5781C50.9271 12.5781 50.3516 12.862 49.9141 13.4297C49.4766 13.9974 49.2578 14.8099 49.2578 15.8672ZM62.5312 19.1641C61.9688 19.8255 61.1432 20.1562 60.0547 20.1562C59.1536 20.1562 58.4661 19.8958 57.9922 19.375C57.5234 18.849 57.2865 18.0729 57.2812 17.0469V11.5469H58.7266V17.0078C58.7266 18.2891 59.2474 18.9297 60.2891 18.9297C61.3932 18.9297 62.1276 18.5182 62.4922 17.6953V11.5469H63.9375V20H62.5625L62.5312 19.1641ZM74.2266 9.85938H70.5703V20H69.0781V9.85938H65.4297V8.625H74.2266V9.85938ZM80.1562 19.1641C79.5938 19.8255 78.7682 20.1562 77.6797 20.1562C76.7786 20.1562 76.0911 19.8958 75.6172 19.375C75.1484 18.849 74.9115 18.0729 74.9062 17.0469V11.5469H76.3516V17.0078C76.3516 18.2891 76.8724 18.9297 77.9141 18.9297C79.0182 18.9297 79.7526 18.5182 80.1172 17.6953V11.5469H81.5625V20H80.1875L80.1562 19.1641ZM90.9219 15.8672C90.9219 17.1589 90.625 18.1979 90.0312 18.9844C89.4375 19.7656 88.6406 20.1562 87.6406 20.1562C86.5729 20.1562 85.7474 19.7786 85.1641 19.0234L85.0938 20H83.7656V8H85.2109V12.4766C85.7943 11.7526 86.599 11.3906 87.625 11.3906C88.651 11.3906 89.4557 11.7786 90.0391 12.5547C90.6276 13.3307 90.9219 14.3932 90.9219 15.7422V15.8672ZM89.4766 15.7031C89.4766 14.7188 89.2865 13.9583 88.9062 13.4219C88.526 12.8854 87.9792 12.6172 87.2656 12.6172C86.3125 12.6172 85.6276 13.0599 85.2109 13.9453V17.6016C85.6536 18.487 86.3438 18.9297 87.2812 18.9297C87.974 18.9297 88.513 18.6615 88.8984 18.125C89.2839 17.5885 89.4766 16.7812 89.4766 15.7031ZM96.2578 20.1562C95.112 20.1562 94.1797 19.7812 93.4609 19.0312C92.7422 18.276 92.3828 17.2682 92.3828 16.0078V15.7422C92.3828 14.9036 92.5417 14.1562 92.8594 13.5C93.1823 12.8385 93.6302 12.3229 94.2031 11.9531C94.7812 11.5781 95.4062 11.3906 96.0781 11.3906C97.1771 11.3906 98.0312 11.7526 98.6406 12.4766C99.25 13.2005 99.5547 14.237 99.5547 15.5859V16.1875H93.8281C93.849 17.0208 94.0911 17.6953 94.5547 18.2109C95.0234 18.7214 95.6172 18.9766 96.3359 18.9766C96.8464 18.9766 97.2786 18.8724 97.6328 18.6641C97.987 18.4557 98.2969 18.1797 98.5625 17.8359L99.4453 18.5234C98.737 19.612 97.6745 20.1562 96.2578 20.1562ZM96.0781 12.5781C95.4948 12.5781 95.0052 12.7917 94.6094 13.2188C94.2135 13.6406 93.9688 14.2344 93.875 15H98.1094V14.8906C98.0677 14.1562 97.8698 13.5885 97.5156 13.1875C97.1615 12.7812 96.6823 12.5781 96.0781 12.5781Z" fill="white"/>
<path fill-rule="evenodd" clip-rule="evenodd" d="M16.0062 11.7728L11.4938 9.51719C11.4938 9.51719 10.2404 8.94726 10.2404 10.0186V15.031C10.2404 15.031 10.2636 15.7955 11.4938 15.2815C12.3498 14.9237 16.0062 13.0258 16.0062 13.0258C16.0062 13.0258 16.9391 12.4282 16.0062 11.7728ZM21.5213 16.7852C20.9624 18.3749 19.7669 18.5797 18.7637 18.7901C17.2852 19.1002 7.77237 19.0612 6.22922 18.5394C5.26706 18.2141 4.67503 18.0741 4.22386 15.7827C3.93499 14.3165 3.91592 10.003 4.22386 8.51494C4.52204 7.07408 5.27096 6.39753 6.73067 6.25928C10.6515 5.88785 17.205 5.94029 19.265 6.25928C21.1748 6.55486 21.5739 7.69385 21.772 8.76545C22.0927 10.5004 22.1304 15.0524 21.5213 16.7852Z" fill="white"/>
</svg>
