<svg width="87" height="96" viewBox="0 0 87 96" fill="none" xmlns="http://www.w3.org/2000/svg">
<path d="M39.9738 5.26397C39.6244 4.93634 39.2749 4.69607 38.9472 4.52134C38.6196 4.36844 38.2483 4.28107 37.8333 4.28107C37.3528 4.28107 37.0033 4.39028 36.763 4.58686C36.5228 4.78344 36.3917 5.11108 36.3917 5.54792C36.3917 5.85371 36.5228 6.13766 36.7849 6.33424C37.047 6.55266 37.3528 6.74924 37.7459 6.94582C38.1391 7.1424 38.5541 7.33898 38.9909 7.5574C39.4278 7.77582 39.8428 8.01609 40.2359 8.32188C40.6291 8.62767 40.9349 8.97715 41.197 9.41399C41.4591 9.85083 41.5902 10.375 41.5902 10.9866C41.5902 11.9258 41.3281 12.734 40.8257 13.4111C40.3233 14.0882 39.537 14.5251 38.5322 14.7653V16.8185H36.632V14.8527C36.0641 14.7872 35.4525 14.6343 34.8191 14.3722C34.1856 14.1101 33.6396 13.7824 33.1809 13.3674L34.4478 11.4235C34.9501 11.7948 35.4307 12.0787 35.8675 12.2753C36.3262 12.4719 36.7849 12.5593 37.2436 12.5593C37.7896 12.5593 38.2046 12.4501 38.4449 12.2316C38.707 12.0132 38.838 11.6637 38.838 11.2051C38.838 10.8556 38.707 10.5716 38.4449 10.3314C38.1828 10.0911 37.877 9.87268 37.4838 9.65425C37.0907 9.43583 36.6757 9.21741 36.2388 8.99899C35.802 8.78057 35.387 8.51846 34.9938 8.21267C34.6007 7.90688 34.2949 7.5574 34.0328 7.1424C33.7706 6.7274 33.6396 6.24687 33.6396 5.65713C33.6396 4.69607 33.9017 3.88791 34.4259 3.25449C34.9501 2.62106 35.6928 2.20606 36.6101 2.03132V0H38.5104V1.98764C39.1438 2.07501 39.6899 2.27159 40.1704 2.55554C40.6509 2.83949 41.0659 3.18896 41.4591 3.60396L39.9738 5.26397Z" fill="#333B41"/>
<path fill-rule="evenodd" clip-rule="evenodd" d="M87 76.0004L83.4063 73.7889L75.3895 88.1638L79.2597 90.0989L87 76.0004Z" fill="#333B41"/>
<path fill-rule="evenodd" clip-rule="evenodd" d="M81.4707 73.2356C72.0717 62.4544 63.7785 65.2188 52.7209 72.4062C43.0454 78.7644 35.858 74.3413 28.6705 77.3822C27.0119 78.2115 24.5239 80.1466 26.7354 82.0817C27.8412 82.911 32.2642 83.7403 33.6464 83.4639C41.1103 81.8052 43.3219 85.1225 54.6559 82.911C51.3387 85.399 40.5575 83.7403 33.9229 84.5696C28.6705 85.6754 20.1008 81.5288 27.0119 76.8293C23.971 75.4471 21.2066 74.6178 17.8893 74.3413C14.572 71.8534 9.31965 68.8125 6.55525 67.7067C4.34372 66.3245 -1.1851 66.8774 2.40863 70.4712C6.00236 73.7884 15.6778 81.2523 17.6129 82.3581C25.3532 87.0576 32.5407 90.3749 40.0046 94.5215C40.0046 94.5215 42.4926 95.9037 47.4685 93.9686C51.0622 92.31 67.0958 83.4639 70.966 84.8461C73.1775 85.6754 74.2832 86.2283 74.2832 86.2283L81.4707 73.2356Z" stroke="#333B41" stroke-width="1.5"/>
<path fill-rule="evenodd" clip-rule="evenodd" d="M34.7528 72.4061C35.3057 71.3003 35.8586 70.471 36.6879 70.1946C37.5172 69.9181 37.7937 70.471 38.3465 71.0239C38.8994 71.8532 39.1759 72.1297 40.0052 72.6825C40.2816 72.959 40.8345 72.959 41.1109 72.959L40.5581 72.6825C39.7287 72.1297 39.1759 71.5768 39.4523 70.471C39.4523 70.1946 39.1759 69.6417 39.7287 69.6417C40.2816 69.9181 41.1109 70.471 41.9403 70.471C41.9403 70.471 42.7696 70.7475 42.4931 70.471C42.4931 70.1946 41.9403 69.9181 41.6638 69.6417C40.0052 68.2595 40.0052 67.983 40.0052 66.048C40.2816 63.2836 39.1759 61.072 37.2408 59.1369C32.8177 54.7139 34.7528 48.6322 38.0701 42.8269C41.1109 37.5746 43.8753 36.7452 40.8345 30.3871C39.7287 27.6227 37.7937 24.8583 37.5172 23.1996C37.5172 22.6468 37.5172 22.9232 37.5172 23.1996C37.2408 24.8583 38.3465 27.3463 39.4523 29.8342C41.9403 35.363 41.3874 35.9159 37.7937 40.8918C33.9235 45.8678 31.1591 51.1202 32.8177 56.649C33.9235 60.5191 39.4523 64.3893 36.6879 66.8773C35.3057 67.983 33.3706 70.7475 33.0942 72.4061C32.8177 73.2354 32.8177 73.2354 32.5413 73.7883C32.2648 74.0647 32.5413 74.0647 32.8177 74.0647C34.1999 73.7883 34.1999 73.2354 34.7528 72.4061Z" fill="#333B41"/>
<path d="M53.068 46.529L53.9801 46.2684L54.0232 47.2161C54.171 50.4683 52.7785 54.3664 50.4893 57.4425C49.3023 59.0375 47.8405 60.4545 46.1798 61.4487C47.2729 61.074 48.4759 60.3838 49.693 59.1695C52.9277 55.6792 53.8196 51.2419 54.8558 45.5536C53.8903 45.6402 52.939 45.8564 51.9621 46.1392C51.3211 46.3247 50.6773 46.5364 50.0111 46.757C49.9707 46.7704 49.9303 46.7838 49.8898 46.7972C49.2724 47.0018 48.6358 47.2127 47.983 47.4089C42.8544 49.3021 40.0789 51.6595 39.0705 54.3645C38.8202 55.654 38.8551 56.8192 39.2935 57.696L39.3303 57.7696L39.3502 57.8495C39.5236 58.5427 40.2251 59.1847 41.1664 59.7019C42.2176 58.713 42.9504 57.8296 43.6711 56.9124C43.4958 57.0928 43.3319 57.265 43.177 57.428C43.0512 57.5602 42.9313 57.6863 42.8158 57.8057C42.6195 58.0085 42.4294 58.1985 42.2546 58.3497C42.0972 58.4858 41.8775 58.6584 41.6242 58.7429L41.4353 58.8059L41.24 58.7668C40.3452 58.5879 39.6727 58.0935 39.397 57.2664C39.1499 56.5252 39.2728 55.6546 39.5608 54.7804C40.0551 52.8473 41.5708 51.3363 43.8139 50.0545C46.0718 48.7643 49.1837 47.6388 53.068 46.529Z" stroke="#333B41" stroke-width="1.5"/>
<path d="M26.3596 28.3644C24.8834 27.8492 23.5975 27.4005 22.1588 27.1376C22.2081 27.3789 22.2565 27.6175 22.3044 27.8535C22.435 28.4963 22.5616 29.1198 22.6907 29.7246C22.6549 29.2771 22.6472 28.8382 22.6697 28.4124L22.7194 27.4666L23.6286 27.7318C26.9611 28.7038 29.6538 29.6904 31.6309 30.8048C33.3949 31.799 34.6825 32.9474 35.2883 34.3666C34.4485 32.1059 32.2374 30.1687 27.9065 28.8949L27.8936 28.8911L27.8809 28.8869C27.3455 28.7084 26.8424 28.5328 26.3596 28.3644ZM25.6847 37.3307C25.1001 36.544 24.585 35.6921 24.1531 34.8091C24.7589 36.2532 25.5581 37.5475 26.7134 38.7027L26.7232 38.7125L26.7326 38.7227C27.369 39.408 28.008 39.8996 28.6251 40.2467C27.5046 39.458 26.5136 38.4458 25.6847 37.3307ZM35.4641 37.5154C35.8985 36.6465 35.911 35.8128 35.5015 34.9459C35.7846 35.7324 35.7967 36.5125 35.5112 37.1787C35.205 37.8931 34.5926 38.3875 33.8288 38.5784L33.617 38.6314L33.4098 38.5623C33.3252 38.5341 33.2444 38.4969 33.1683 38.455C33.3424 38.6533 33.5256 38.8555 33.7217 39.0632L33.7415 39.0583C34.7005 38.8185 35.2238 38.4027 35.4073 37.6689L35.4273 37.589L35.4641 37.5154Z" stroke="#333B41" stroke-width="1.5"/>
<path d="M50.7817 28.6734C50.4562 29.062 50.1084 29.4323 49.7404 29.7771C49.9069 29.6374 50.0745 29.4844 50.2426 29.317C50.4332 29.1067 50.6125 28.8922 50.7817 28.6734ZM53.9904 19.4629C53.9931 19.4482 53.9958 19.4336 53.9985 19.4189C52.4669 19.7173 50.8898 20.1955 49.1138 20.8616L49.1138 20.8617L49.1027 20.8656C45.6254 22.1075 43.7148 23.5078 42.8639 25.3818C43.4433 24.1922 44.4856 23.2208 45.9543 22.3771C47.6626 21.3957 50.0171 20.5465 53.0761 19.7122L53.9904 19.4629ZM43.9138 29.1641C43.613 29.0638 43.3531 28.9104 43.14 28.7123C43.3282 29.0575 43.5877 29.3413 43.9505 29.5208C44.0559 29.4112 44.1572 29.3037 44.2551 29.1978C44.2211 29.2009 44.1863 29.2025 44.1509 29.2025H44.0292L43.9138 29.1641Z" stroke="#333B41" stroke-width="1.5"/>
</svg>
