<svg width="10" height="20" viewBox="0 0 10 20" fill="none" xmlns="http://www.w3.org/2000/svg">
<path d="M8.07792 6.25974C7.66234 5.87013 7.24675 5.58442 6.85714 5.37662C6.46753 5.19481 6.02597 5.09091 5.53247 5.09091C4.96104 5.09091 4.54545 5.22078 4.25974 5.45455C3.97403 5.68831 3.81818 6.07792 3.81818 6.5974C3.81818 6.96104 3.97403 7.2987 4.28571 7.53247C4.5974 7.79221 4.96104 8.02597 5.42857 8.25974C5.8961 8.49351 6.38961 8.72727 6.90909 8.98701C7.42857 9.24675 7.92208 9.53247 8.38961 9.8961C8.85714 10.2597 9.22078 10.6753 9.53247 11.1948C9.84416 11.7143 10 12.3377 10 13.0649C10 14.1818 9.68831 15.1429 9.09091 15.9481C8.49351 16.7532 7.55844 17.2727 6.36364 17.5584V20H4.1039V17.6623C3.42857 17.5844 2.7013 17.4026 1.94805 17.0909C1.19481 16.7792 0.545455 16.3896 0 15.8961L1.50649 13.5844C2.1039 14.026 2.67532 14.3636 3.19481 14.5974C3.74026 14.8312 4.28571 14.9351 4.83117 14.9351C5.48052 14.9351 5.97403 14.8052 6.25974 14.5455C6.57143 14.2857 6.72727 13.8701 6.72727 13.3247C6.72727 12.9091 6.57143 12.5714 6.25974 12.2857C5.94805 12 5.58442 11.7403 5.11688 11.4805C4.64935 11.2208 4.15584 10.961 3.63636 10.7013C3.11688 10.4416 2.62338 10.1299 2.15584 9.76623C1.68831 9.4026 1.32468 8.98701 1.01299 8.49351C0.701299 8 0.545455 7.42857 0.545455 6.72727C0.545455 5.58442 0.857143 4.62338 1.48052 3.87013C2.1039 3.11688 2.98701 2.62338 4.07792 2.41558V0H6.33766V2.36364C7.09091 2.46753 7.74026 2.7013 8.31169 3.03896C8.88312 3.37662 9.37662 3.79221 9.84416 4.28571L8.07792 6.25974Z" fill="#929699"/>
</svg>
