<svg width="58" height="42" viewBox="0 0 58 42" fill="none" xmlns="http://www.w3.org/2000/svg">
<path d="M53.7501 31.5338C56.0937 27.0938 58 21.6492 58 15.8465C58 12.9318 57.0706 9.61843 55.5138 6.98355C54.1526 4.67954 51.6283 1.70282 47.3301 0.605337C41.8905 -0.783412 36.3792 0.511685 31.9507 1.55244C30.3503 1.92853 28.8386 2.28374 27.5437 2.45941C24.64 2.85302 21.5721 2.79536 18.9349 2.69555H18.9331C18.5205 2.6799 18.1174 2.66331 17.7283 2.64725C16.0621 2.57835 12.2248 2.51226 12.2248 2.51226C12.0154 1.64021 11.538 0.925767 10.9421 0.595972C10.6896 0.458575 10.414 0.388928 10.1355 0.392146C9.85694 0.395365 9.58256 0.471365 9.33249 0.614568C8.51285 1.04792 8.11983 2.01081 8.30562 3.09786C6.99233 3.75825 5.70929 5.07275 4.93115 6.10642C4.26304 6.99385 3.69648 8.39504 3.14837 9.75007C2.5903 11.1301 2.01331 12.5571 1.43586 13.1334C1.29451 13.2733 1.1695 13.4342 1.06404 13.6121C1.06221 13.6121 1.06037 13.6109 1.05842 13.6105C0.937676 13.5821 0.813179 13.5835 0.692918 13.6146C0.572657 13.6456 0.459286 13.7057 0.360075 13.7909C0.260865 13.8761 0.178006 13.9846 0.116811 14.1094C0.0556166 14.2341 0.0174376 14.3725 0.00472252 14.5155C-0.00799251 14.6585 0.00503716 14.803 0.0429759 14.9398C0.0809147 15.0766 0.142925 15.2026 0.22503 15.3098C0.307136 15.4169 0.407523 15.5029 0.519755 15.5621C0.631987 15.6214 0.753586 15.6526 0.876754 15.6537C0.981015 16.0329 1.12183 16.397 1.29649 16.739C2.45849 19.0738 4.29662 20.5253 5.91835 21.8057C6.81238 22.5116 7.65666 23.1784 8.31078 23.9231C8.80152 24.5013 9.22839 25.1489 9.58144 25.8507C9.58534 25.8597 9.5905 25.8673 9.59474 25.876C10.2587 27.1729 10.7854 28.7551 10.8837 30.2662C11.0081 32.1754 11.3023 37.3304 11.3948 38.9588C11.0753 39.0774 10.7755 39.2591 10.5086 39.4959C10.31 39.6712 10.1643 39.9157 10.0925 40.194C10.0208 40.4723 10.0267 40.77 10.1094 41.0442C10.1879 41.3239 10.3406 41.5673 10.5454 41.7391C10.7503 41.911 10.9966 42.0023 11.2488 42H16.6801C16.8551 42.0002 17.028 41.9557 17.1866 41.8695C17.3453 41.7833 17.4858 41.6576 17.5983 41.5012C18.7995 39.834 21.7957 35.5371 23.6919 31.6385C31.0323 31.6301 36.0454 31.3192 38.9697 30.6886C39.4052 33.9029 39.9805 37.5655 40.1907 38.8864C40.0092 38.9855 39.8376 39.1075 39.6788 39.2502C39.4616 39.4457 39.3022 39.7157 39.223 40.0224C39.1438 40.329 39.1488 40.6568 39.2373 40.96C39.3257 41.2631 39.4932 41.5264 39.7163 41.7128C39.9394 41.8993 40.2068 41.9996 40.4812 41.9997H45.5721C45.8732 41.9993 46.1652 41.8786 46.3994 41.6576C48.0783 40.0679 51.1503 36.4367 53.712 31.6063C53.7262 31.5832 53.7389 31.559 53.7501 31.5338V31.5338ZM17.8733 16.2565C16.2311 20.2734 13.3406 23.5228 10.2615 24.8481C9.90794 24.2025 9.49559 23.6034 9.03162 23.0613C8.31136 22.2413 7.42994 21.5455 6.49672 20.8086C4.89206 19.5413 3.23227 18.2309 2.18879 16.1342C1.55357 14.8579 1.79083 14.3637 2.10649 14.0488C2.8522 13.3046 3.44936 11.8278 4.08171 10.2641C4.5991 8.98439 5.13414 7.6612 5.70643 6.9014C6.39895 5.98132 7.63052 4.70897 8.82232 4.15106C8.9394 4.09606 9.04467 4.01165 9.13065 3.90382C9.78214 5.01535 11.3338 4.85146 11.7233 3.83933C11.7505 3.76662 11.7706 3.69061 11.7834 3.61269C13.4234 3.86167 16.0367 3.78193 17.6919 3.8507C17.9725 3.86234 18.2618 3.87412 18.5548 3.88562C19.7618 7.84222 19.5238 12.2191 17.8733 16.2565ZM49.524 27.2852C48.5624 27.0767 43.7899 26.2342 39.7871 28.9726C39.5968 27.4624 39.4669 26.2065 39.4669 25.5927C39.4669 25.433 39.4126 25.2798 39.3158 25.1669C39.2191 25.054 39.0879 24.9906 38.9511 24.9906C38.8143 24.9906 38.6831 25.054 38.5864 25.1669C38.4897 25.2798 38.4353 25.433 38.4353 25.5927C38.4353 26.3055 38.5912 27.7746 38.8121 29.4983C36.3147 30.0429 32.1963 30.346 26.293 30.418C27.4682 29.585 28.4053 28.3893 29.0897 26.8341C30.0428 24.6698 30.464 21.8499 30.3079 18.6791C30.132 15.1069 27.7803 10.2953 25.8906 6.42952C25.4529 5.53433 25.0338 4.67686 24.6848 3.918C25.6787 3.8705 26.678 3.78889 27.6624 3.65537C28.9997 3.47421 30.5318 3.11405 32.1538 2.73221C36.4876 1.71366 41.8811 0.445993 47.1091 1.78109C54.2918 3.61563 56.9684 11.3821 56.9684 15.8465C56.9684 20.9849 55.4042 25.8407 53.3859 29.9204C52.7933 28.886 51.5584 27.727 49.524 27.2852V27.2852Z" fill="black"/>
<path d="M6.89343 9.19394C4.50433 8.27011 3.11475 10.8646 4.6352 12.3883C5.46664 13.221 6.25702 15.1507 8.06361 14.9906C10.9339 14.7369 10.6696 10.6525 6.89343 9.19394ZM5.81115 11.7043C5.66947 11.7043 5.53097 11.6617 5.41317 11.5818C5.29537 11.502 5.20355 11.3886 5.14933 11.2558C5.09512 11.1231 5.08093 10.977 5.10857 10.8361C5.13621 10.6952 5.20444 10.5658 5.30462 10.4642C5.4048 10.3626 5.53244 10.2934 5.6714 10.2653C5.81036 10.2373 5.95439 10.2517 6.08529 10.3067C6.21618 10.3617 6.32806 10.4548 6.40677 10.5742C6.48549 10.6937 6.5275 10.8342 6.5275 10.9778C6.52746 11.1705 6.45198 11.3552 6.31765 11.4915C6.18331 11.6277 6.00113 11.7042 5.81115 11.7043V11.7043Z" fill="black"/>
<path d="M29.2534 32.1105C29.2471 32.0787 29.2322 32.0504 29.2113 32.0304C29.1903 32.0104 29.1645 31.9996 29.138 32C28.5727 32.0074 25.5797 32.0461 24.3108 32.0523C24.2913 32.0522 24.272 32.0584 24.255 32.0701C24.2379 32.0818 24.2236 32.0988 24.2134 32.1193C23.3977 33.7222 21.9669 36.2164 21.0219 37.8401C21.0064 37.8669 20.9987 37.8994 21.0002 37.9323C21.0017 37.9652 21.0122 37.9964 21.03 38.0209L22.3505 39.8507L22.3364 39.8768C22.3317 39.887 22.3258 39.8972 22.3211 39.9073C22.2181 40.116 22.1619 40.3549 22.1583 40.5993C22.1547 40.8437 22.2039 41.0849 22.3007 41.2981C22.3975 41.5112 22.5386 41.6886 22.7092 41.812C22.8799 41.9354 23.0741 42.0003 23.2718 42H28.8868C29.0353 41.9999 29.1823 41.9631 29.3191 41.8917C29.456 41.8203 29.5799 41.7158 29.6836 41.5843C29.7873 41.4528 29.8686 41.297 29.9229 41.1261C29.9772 40.9552 30.0033 40.7725 29.9997 40.5889C29.9809 39.6429 29.9315 38.1577 29.8093 36.546C29.7081 35.0532 29.5223 33.5711 29.2534 32.1105Z" fill="black"/>
<path d="M56.468 28.0889C56.4604 28.0636 56.4464 28.0415 56.4278 28.0256C56.4092 28.0097 56.387 28.0008 56.3639 28.0001C56.3409 27.9993 56.3182 28.0067 56.2989 28.0213C56.2795 28.0359 56.2644 28.0569 56.2556 28.0818C56.1031 28.5141 55.9319 28.9372 55.7429 29.3495C54.1619 32.8023 52.2445 36.0311 50.0286 38.9719C50.0097 38.9966 49.9995 39.0286 50 39.0617C50.0005 39.0947 50.0117 39.1264 50.0313 39.1502L50.4144 39.6212C50.3018 39.7766 50.2074 39.9486 50.1335 40.1328C50.0542 40.3363 50.0204 40.5599 50.0351 40.7828C50.0498 41.0057 50.1126 41.2206 50.2177 41.4076C50.3112 41.5855 50.4418 41.733 50.5972 41.8366C50.7526 41.9401 50.9279 41.9963 51.1069 42H56.9229C57.0665 41.9999 57.2086 41.9664 57.341 41.9014C57.4733 41.8364 57.5931 41.7412 57.6935 41.6214C57.7938 41.5017 57.8725 41.3598 57.9251 41.204C57.9777 41.0483 58.0031 40.8819 57.9997 40.7145C57.9422 38.0216 57.6751 32.0536 56.468 28.0889Z" fill="black"/>
</svg>
